<?xml version="1.0" encoding="iso-8859-1"?>
<!-- Generator: Adobe Illustrator 19.0.0, SVG Export Plug-In . SVG Version: 6.00 Build 0)  -->
<svg version="1.1" id="Layer_1" xmlns="http://www.w3.org/2000/svg" xmlns:xlink="http://www.w3.org/1999/xlink" x="0px" y="0px"
	 viewBox="0 0 473.935 473.935" style="enable-background:new 0 0 473.935 473.935;" xml:space="preserve">
<circle style="fill:#49A0AE;" cx="236.967" cy="236.967" r="236.967"/>
<path style="fill:#972627;" d="M222.55,109.923c0,0-29.343,15.817,8.498,48.812C231.052,158.734,168.448,126.805,222.55,109.923z"/>
<path style="fill:#E34F50;" d="M196.564,117.496c-10.196,18.541,29.841,43.835,29.841,43.835l4.647-2.593
	c-4.509-3.113-31.285-22.365-26.309-35.861c4.932-13.388,22.013-10.181,27.18,2.578c4.561,11.285,8.602,24.591,8.412,28.071
	l4.079-2.286c0,0,3.222-15.809-3.91-33.448C233.36,100.153,206.101,100.123,196.564,117.496z"/>
<path style="fill:#972627;" d="M266.539,113.949c0,0,26.009,17.373-7.091,55.053C259.452,169.002,314.4,132.179,266.539,113.949z"/>
<path style="fill:#E34F50;" d="M289.532,122.091c9.134,20.726-25.961,49.77-25.961,49.77l-4.123-2.859
	c3.948-3.566,27.405-25.616,22.911-40.729c-4.464-15.005-19.506-11.147-23.955,3.289c-3.925,12.76-7.383,27.809-7.184,31.712
	l-3.618-2.514c0,0-2.975-17.744,3.173-37.695C256.922,103.112,280.975,102.682,289.532,122.091z"/>
<path style="fill:#972627;" d="M256.193,89.593c0,0-40.37-0.168-19.207,58.421C236.986,148.014,188.859,75.868,256.193,89.593z"/>
<g>
	<path style="fill:#E34F50;" d="M224.159,82.402c-21.575,14.215,6.372,65.691,6.372,65.691l6.455-0.079
		c-2.997-6.08-20.348-43.06-7.244-54.855c13.003-11.708,29.321,1.964,27.427,18.986c-1.673,15.046-5.085,32.011-7.3,35.7
		l5.665-0.079c0,0,12.584-15.356,15.203-38.888S244.365,69.085,224.159,82.402z"/>
	<path style="fill:#E34F50;" d="M321.79,163.355c-14.215,21.575-65.695-6.372-65.695-6.372l0.079-6.455
		c6.08,2.997,42.387,19.719,54.855,7.252c4.15-4.157-5.759-27.203-18.986-27.435c-15.143-0.262-34.664,4.898-51.195,32.026
		l0.079-15.551c0,0,30.847-27.42,54.379-30.035C318.838,114.169,335.103,143.153,321.79,163.355z"/>
</g>
<path style="fill:#972627;" d="M240.851,162.367c0,0,18.649-35.461,55.382-31.221c0,0-15.989-4.501-25.71-2.477
	c-5.085,1.059-20.98,9.538-29.59,18.148L240.851,162.367z"/>
<path style="fill:#E34F50;" d="M169.342,170.135c17.751,18.769,63.58-17.706,63.58-17.706l-1.205-6.342
	c-5.467,4.011-38.308,26.791-52.759,16.685c-4.808-3.368,0.935-27.787,13.923-30.316c14.874-2.9,34.993-1.212,55.988,22.619
	l-2.784-15.296c0,0-35.154-21.631-58.78-20.112S152.706,152.56,169.342,170.135z"/>
<path style="fill:#972627;" d="M248.87,155.075c0,0-24.535-31.674-59.97-21.107c0,0,14.967-7.214,24.89-6.915
	c5.19,0.161,22.32,5.744,32.295,12.722L248.87,155.075z"/>
<path style="fill:#DFDFDF;" d="M366.486,182.663H108.998c-4.423,0-8.011,3.588-8.011,8.019v144.272c0,4.423,3.588,8.011,8.011,8.011
	h128.486h0.528h128.478c4.43,0,8.011-3.588,8.011-8.011V190.678C374.497,186.259,370.916,182.663,366.486,182.663z"/>
<path style="fill:#CDCCCB;" d="M366.486,182.663H238.023l0.022,160.298h128.441c4.43,0,8.011-3.588,8.011-8.011V190.678
	C374.497,186.259,370.916,182.663,366.486,182.663z"/>
<path style="fill:#B4B4B5;" d="M375.264,173.387l-137.241-26.17v-0.109l-0.277,0.052l-0.284-0.052v0.109l-137.241,26.17
	c-4.722,0-8.557,3.828-8.557,8.557v25.265c0,4.722,3.835,8.557,8.557,8.557l137.526-26.23l137.518,26.23
	c4.73,0,8.557-3.828,8.557-8.557v-25.265C383.821,177.219,379.993,173.387,375.264,173.387z"/>
<path style="fill:#CECBCB;" d="M383.821,202.547c0,4.73,0.284,8.842-3.106,8.557l-143.254-26.279v-42.379l137.803,26.279
	c4.73,0,8.557,3.828,8.557,8.557V202.547L383.821,202.547z"/>
<path style="fill:#E9E9EA;" d="M91.663,177.282c0-4.73,3.835-8.557,8.557-8.557l137.803-26.279v42.379L94.203,212.238
	c-2.544,0-2.544-4.969-2.544-9.691v-25.265H91.663z"/>
<polygon style="fill:#D32033;" points="330.707,344.188 290.015,344.188 290.015,199.449 292.555,195.568 333.535,203.198 
	330.707,207.078 "/>
<polygon style="fill:#D22027;" points="290.015,199.449 292.555,195.568 333.535,203.198 330.707,207.071 "/>
<polygon style="fill:#E03740;" points="333.535,160.672 292.555,152.758 292.555,195.568 333.535,203.198 "/>
<polygon style="fill:#E34F50;" points="143.022,344.188 183.711,344.188 183.711,199.669 181.166,195.568 140.197,203.19 
	143.022,207.291 "/>
<polygon style="fill:#D51F31;" points="183.711,199.669 181.166,195.568 140.197,203.19 143.022,207.291 "/>
<polygon style="fill:#E34F50;" points="140.197,161.095 181.267,153.252 181.166,195.568 140.197,203.19 "/>
<g>
</g>
<g>
</g>
<g>
</g>
<g>
</g>
<g>
</g>
<g>
</g>
<g>
</g>
<g>
</g>
<g>
</g>
<g>
</g>
<g>
</g>
<g>
</g>
<g>
</g>
<g>
</g>
<g>
</g>
</svg>
